HIERARCHY
ROOT pelvis
{
  OFFSET 0 100 0
  CHANNELS 6 Xposition Yposition Zposition Zrotation Xrotation Yrotation
  JOINT pelvis_right_femur
  {
    OFFSET -10.78128 -3.44521 -0.5502486
    CHANNELS 3 Zrotation Xrotation Yrotation
    JOINT right_femur_tibia
    {
      OFFSET -0.8047443 -44.0398 -0.1307829
      CHANNELS 3 Zrotation Xrotation Yrotation
      JOINT right_tibia_foot
      {
        OFFSET 3.006224 -47.83518 -5
        CHANNELS 3 Zrotation Xrotation Yrotation
        End Site
        {
          OFFSET 0 -5 15
        }
      }
    }
  }
  JOINT pelvis_left_femur
  {
    OFFSET 10.78128 -3.44521 -0.5502486
    CHANNELS 3 Zrotation Xrotation Yrotation
    JOINT left_femur_tibia
    {
      OFFSET 0.8047443 -44.0398 -0.1307829
      CHANNELS 3 Zrotation Xrotation Yrotation
      JOINT left_tibia_foot
      {
        OFFSET -4.370144 -48.10324 -4.275266
        CHANNELS 3 Zrotation Xrotation Yrotation
        End Site
        {
          OFFSET 0 -5 15
        }
      }
    }
  }
  JOINT pelvis_spine1
  {
    OFFSET 0 6.468898 -3.129235
    CHANNELS 3 Zrotation Xrotation Yrotation
    JOINT spine1
    {
      OFFSET 0 23.15396 4.99043
      CHANNELS 3 Zrotation Xrotation Yrotation
      JOINT spine2
      {
        OFFSET 0 20.79997 -5.064912
        CHANNELS 3 Zrotation Xrotation Yrotation
        JOINT neck
        {
          OFFSET 0 14.38658 9.616178
          CHANNELS 3 Zrotation Xrotation Yrotation
          End Site
          {
            OFFSET 0 20 0
          }
        }
      }
      JOINT right_manubrium
      {
        OFFSET -5.722621 16.35077 3.967754
        CHANNELS 3 Zrotation Xrotation Yrotation
        JOINT right_clavicle
        {
          OFFSET -13.16364 1.694482 -4.693211
          CHANNELS 3 Zrotation Xrotation Yrotation
          JOINT right_humerus
          {
            OFFSET -28.5034 -0.3100689 -2.792744
            CHANNELS 3 Zrotation Xrotation Yrotation
            JOINT right_radius
            {
              OFFSET -25.15693 0.02248979 -1.271978
              CHANNELS 3 Zrotation Xrotation Yrotation
              End Site
              {
                OFFSET -15 0 0
              }
            }
          }
        }
      }
      JOINT left_manubrium
      {
        OFFSET 5.722621 16.35077 3.967754
        CHANNELS 3 Zrotation Xrotation Yrotation
        JOINT left_clavicle
        {
          OFFSET 13.16364 1.694482 -4.693211
          CHANNELS 3 Zrotation Xrotation Yrotation
          JOINT left_humerus
          {
            OFFSET 29.39168 -1.063119 -2.237045
            CHANNELS 3 Zrotation Xrotation Yrotation
            JOINT left_radius
            {
              OFFSET 24.59957 -0.9528479 0.9047498
              CHANNELS 3 Zrotation Xrotation Yrotation
              End Site
              {
                OFFSET 15 -0 -0
              }
            }
          }
        }
      }
    }
  }
}
MOTION
Frames: 21
Frame Time: 0.0416666666667
707.8199 104.3834 3004.206 3.168622 -6.356834 21.93329 4.337236 12.27311 4.231221 -0 11.3981 -0 -1.024515 -14.57498 -2.540956 1.23937 -23.0349 -3.630333 -0 34.30024 -0 -7.146618 -7.597658 19.56996 1.437037 -4.118642 7.36175 1.151722 15.31119 -6.344136 1.871278 20.4641 0.5038014 -2.176116 -21.15357 5.087803 -5.674186 -33.24251 12.2396 90.52864 12.02646 -7.734366 -0 0 29.04395 -25.2701 15.68714 17.50615 1.202444 -20.58906 -5.81497 -95.39264 15.37259 35.82302 0 0 -7.572475 2.865115 15.50288 6.46748
710.5256 103.3451 3009.503 2.432864 -5.636174 21.14315 4.135204 14.90617 4.185465 -0 11.7767 -0 -0.5038465 -16.07042 -1.683638 2.141912 -25.83183 -3.138451 -0 25.6697 -0 -6.717276 -7.280005 19.60403 1.436927 -4.120174 7.359852 1.146116 15.31536 -6.33899 1.873941 20.46485 0.5098412 -2.170412 -21.15623 5.092216 -5.672367 -33.23128 12.23728 90.53074 12.01009 -7.739559 -0 0 29.03729 -25.27974 15.68825 17.51213 1.208806 -20.58904 -5.81747 -95.39916 15.38434 35.81069 0 0 -7.578043 2.858374 15.49639 6.485586
713.5148 102.2225 3015.029 1.920616 -4.724256 20.44186 3.454027 16.96816 4.164264 -0 13.67046 -0 0.02425862 -16.40359 -0.9106611 2.069896 -27.3589 -3.43203 -0 19.6921 -0 -6.441842 -7.14035 19.22138 1.436934 -4.120738 7.357572 1.140615 15.32033 -6.334381 1.876274 20.46693 0.5168453 -2.163774 -21.15888 5.096764 -5.670458 -33.2175 12.23575 90.53542 11.9949 -7.749307 -0 0 29.02506 -25.28791 15.68758 17.51465 1.215018 -20.59106 -5.821547 -95.40407 15.3953 35.79526 0 0 -7.585026 2.855623 15.49102 6.4995
716.8082 101.3191 3020.868 1.887357 -3.812698 19.91124 2.21808 18.47865 4.240659 -0 17.64466 -0 0.5352272 -14.57827 -0.4105032 0.8833167 -27.53268 -4.4695 -0 17.22868 -0 -6.181208 -7.337202 18.76152 1.437075 -4.120592 7.355042 1.135361 15.32593 -6.330348 1.878255 20.46995 0.5244676 -2.156507 -21.16135 5.101274 -5.668344 -33.2021 12.23497 90.54195 11.98108 -7.762509 -0 0 29.00873 -25.29478 15.6858 17.51439 1.220966 -20.59482 -5.826869 -95.40766 15.4051 35.77796 0 0 -7.592838 2.856244 15.48681 6.50962
720.3548 100.8812 3027.023 2.369106 -3.178838 19.65464 0.6897049 19.08499 4.459667 -0 24.02669 -0 0.9876421 -10.27189 -0.4488534 -1.044009 -26.23048 -5.832729 -0 17.73204 -0 -5.63396 -7.88202 18.50739 1.437359 -4.119987 7.352382 1.130458 15.33195 -6.3269 1.879881 20.47352 0.5323965 -2.148891 -21.16355 5.10561 -5.665938 -33.18589 12.23487 90.54965 11.96873 -7.778106 -0 0 28.98971 -25.30054 15.68356 17.512 1.226569 -20.6 -5.833114 -95.41023 15.4135 35.75992 0 0 -7.600956 2.859585 15.48377 6.516441
724.0287 101.0269 3033.366 3.123048 -3.040814 19.78007 -0.5898203 17.92845 4.733172 -0 32.36369 -0 1.425105 -4.461355 -1.211218 -2.99694 -23.2946 -6.894662 -0 19.53398 -0 -4.553751 -8.618128 18.4093 1.437788 -4.119142 7.349696 1.125973 15.33825 -6.324018 1.881167 20.47732 0.5403696 -2.141164 -21.16538 5.109666 -5.663179 -33.16959 12.23536 90.55793 11.95787 -7.795151 -0 0 28.96924 -25.30537 15.68137 17.50812 1.231778 -20.6063 -5.839984 -95.41206 15.42035 35.74207 0 0 -7.608943 2.865014 15.48182 6.520486
727.6667 101.7195 3039.653 3.796156 -3.442787 20.33404 -1.149219 14.27652 4.840068 -0 41.20935 -0 1.883473 0.8378339 -2.629737 -4.424091 -18.74089 -7.337805 -0 20.9422 -0 -3.126084 -9.425632 18.18122 1.43836 -4.118262 7.347078 1.121946 15.34466 -6.321658 1.882137 20.48106 0.548152 -2.133541 -21.16679 5.113363 -5.660032 -33.15382 12.23634 90.56624 11.94845 -7.812736 -0 0 28.94849 -25.3095 15.6797 17.50336 1.236568 -20.61339 -5.84719 -95.41344 15.42557 35.72522 0 0 -7.616419 2.871881 15.48089 6.522345
731.1253 102.775 3045.623 4.167495 -4.230163 21.24629 -0.9643403 8.395269 4.641294 -0 48.51778 -0 2.184571 3.889835 -4.315042 -5.214898 -13.07594 -7.421309 -0 21.08628 -0 -1.968656 -10.38297 17.66599 1.439059 -4.117553 7.344623 1.118398 15.351 -6.319752 1.882834 20.48442 0.5555123 -2.126237 -21.16775 5.116637 -5.656486 -33.1392 12.23768 90.57402 11.94036 -7.829907 -0 0 28.92866 -25.31318 15.67895 17.49838 1.240929 -20.62088 -5.854412 -95.41467 15.4292 35.71015 0 0 -7.623016 2.879454 15.4808 6.522717
734.3285 103.8998 3051.128 4.232621 -5.107969 22.35906 -0.4147368 1.434513 4.185612 -0 52.38488 -0 2.07063 4.390662 -5.783253 -5.504348 -7.198827 -7.557381 -0 19.92836 -0 -1.559273 -11.62815 16.93766 1.439863 -4.117219 7.342424 1.115329 15.3571 -6.318208 1.883313 20.48713 0.562221 -2.119472 -21.16824 5.119436 -5.652553 -33.12631 12.23922 90.5807 11.93346 -7.845668 -0 0 28.91099 -25.31667 15.67955 17.4939 1.24487 -20.62836 -5.861309 -95.41609 15.43132 35.69763 0 0 -7.628383 2.886928 15.48137 6.522397
737.2816 104.7717 3056.2 4.111701 -5.76171 23.50949 0.08696278 -5.481357 3.563622 -0 51.77792 -0 1.556904 3.242183 -6.799387 -5.466988 -1.843365 -7.854973 -0 17.88997 -0 -1.856972 -13.19038 16.09171 1.440743 -4.117436 7.340566 1.112723 15.36277 -6.316921 1.883638 20.48891 0.5680779 -2.113441 -21.16826 5.121728 -5.648273 -33.11569 12.2408 90.58577 11.92753 -7.859097 -0 0 28.8966 -25.32024 15.68178 17.49057 1.24841 -20.6354 -5.867552 -95.41799 15.43209 35.68825 0 0 -7.632227 2.893516 15.48236 6.522194
740.0438 105.1481 3061.006 3.930357 -5.991445 24.58668 0.3318557 -11.73412 2.805238 -0 46.9779 -0 0.9381377 1.491811 -7.408925 -5.296187 2.757849 -8.189634 -0 15.58653 -0 -2.544712 -14.99756 15.15991 1.441666 -4.118326 7.339102 1.110537 15.36788 -6.315783 1.883875 20.48961 0.5729507 -2.108278 -21.16785 5.123517 -5.643705 -33.10765 12.24227 90.58886 11.92235 -7.8695 -0 0 28.88629 -25.3241 15.68581 17.48892 1.251589 -20.64163 -5.87288 -95.42062 15.43173 35.68239 0 0 -7.63438 2.898564 15.48353 6.522818
742.6898 104.9373 3065.751 3.764815 -5.773639 25.53985 0.3214048 -17.07126 1.963852 -0 39.41659 -0 0.5236433 -0.2370508 -7.780603 -5.162604 6.702448 -8.43336 -0 13.66875 -0 -3.34038 -16.89696 14.19827 1.4426 -4.119939 7.338049 1.108706 15.37232 -6.314693 1.884085 20.48916 0.5768002 -2.104038 -21.16707 5.124841 -5.638929 -33.10229 12.2435 90.58984 11.91768 -7.876518 -0 0 28.88043 -25.32843 15.69165 17.48926 1.254465 -20.64681 -5.877137 -95.4241 15.43054 35.68008 0 0 -7.634827 2.901635 15.48468 6.524805
745.289 104.1964 3070.615 3.638962 -5.233267 26.36234 0.1939282 -21.3935 1.203415 -0 30.95965 -0 0.4513926 -1.646133 -8.093106 -5.139181 10.14463 -8.529089 -0 12.67341 -0 -4.080182 -18.65455 13.30681 1.443516 -4.122258 7.337389 1.107143 15.3761 -6.313556 1.884326 20.48759 0.5796763 -2.100687 -21.16601 5.125772 -5.634026 -33.09946 12.24442 90.58873 11.91326 -7.880114 -0 0 28.87899 -25.33331 15.69913 17.4917 1.257117 -20.6508 -5.880274 -95.4285 15.42882 35.68106 0 0 -7.633696 2.90251 15.48562 6.528512
747.9 103.0855 3075.737 3.541916 -4.570608 27.07253 0.1461834 -24.63542 0.7430865 -0 23.20944 -0 0.6653369 -2.592629 -8.463862 -5.188761 13.18421 -8.495221 -0 12.9558 -0 -4.748356 -20.00006 12.55962 1.444389 -4.125227 7.337076 1.105751 15.37924 -6.312293 1.884645 20.48502 0.5816919 -2.098136 -21.16476 5.126404 -5.629072 -33.09886 12.24497 90.58571 11.90885 -7.880486 -0 0 28.88164 -25.3388 15.70804 17.49621 1.25963 -20.65358 -5.882325 -95.4338 15.42688 35.68489 0 0 -7.631204 2.901139 15.4862 6.534148
750.5681 101.8236 3081.22 3.447983 -3.996103 27.69544 0.366095 -26.6744 0.7525386 -0 17.26457 -0 0.9836702 -3.066089 -8.918795 -5.205152 15.83623 -8.415318 -0 14.73681 -0 -5.467049 -20.66559 11.96956 1.445201 -4.128769 7.337055 1.104433 15.3818 -6.310831 1.885085 20.48159 0.5829883 -2.096265 -21.16341 5.126834 -5.624134 -33.10011 12.24511 90.581 11.90421 -7.877947 -0 0 28.8879 -25.34496 15.71809 17.50266 1.262095 -20.65517 -5.883368 -95.43997 15.42502 35.69105 0 0 -7.627605 2.897568 15.48629 6.541833
753.3178 100.6594 3087.119 3.329155 -3.699144 28.24029 0.9827957 -27.29822 1.285535 -0 13.80516 -0 1.166909 -3.217035 -9.398185 -5.058779 17.99164 -8.39888 -0 18.16725 -0 -6.394598 -20.39377 11.52944 1.445938 -4.132817 7.337272 1.103098 15.38384 -6.309108 1.885683 20.47741 0.583702 -2.094957 -21.16204 5.127154 -5.619263 -33.10288 12.24481 90.57482 11.89914 -7.872805 -0 0 28.89733 -25.3518 15.72908 17.51095 1.264596 -20.65559 -5.883484 -95.44697 15.4235 35.69905 0 0 -7.623131 2.891858 15.48581 6.551661
756.1426 99.84265 3093.413 3.167339 -3.828475 28.6734 2.01737 -26.28785 2.238907 -0 13.12645 -0 0.9759359 -3.36978 -9.782249 -4.648154 19.37151 -8.511165 -0 23.31813 -0 -7.555892 -18.98369 11.29108 1.446586 -4.137327 7.337687 1.101666 15.38541 -6.307061 1.886474 20.47258 0.5839408 -2.09412 -21.16072 5.127439 -5.614498 -33.10689 12.24405 90.56734 11.89345 -7.865273 -0 0 28.90961 -25.35939 15.74082 17.52102 1.26721 -20.65486 -5.882729 -95.45479 15.42254 35.70852 0 0 -7.617959 2.88402 15.48464 6.563756
758.9966 99.57427 3099.968 2.984134 -4.452405 28.90148 3.340356 -23.61677 3.354726 -0 14.92989 -0 0.2816676 -3.942208 -9.95052 -3.982647 19.53386 -8.685746 -0 30.09724 -0 -8.690246 -16.44352 11.40994 1.447134 -4.142281 7.338273 1.10007 15.38654 -6.304631 1.887491 20.46715 0.5837808 -2.093689 -21.1595 5.127751 -5.609865 -33.11196 12.24278 90.55862 11.88695 -7.855455 -0 0 28.92458 -25.36779 15.75323 17.53288 1.270007 -20.65297 -5.881126 -95.46347 15.42233 35.71921 0 0 -7.612208 2.874003 15.4827 6.578291
761.8073 99.9421 3106.551 2.880649 -5.498737 28.80257 4.675432 -19.62813 4.329446 -0 18.06277 -0 -0.7736096 -5.184271 -9.859501 -3.252408 18.00083 -8.719848 -0 38.14187 -0 -9.327621 -13.20909 12.0588 1.447573 -4.147667 7.339005 1.098246 15.38725 -6.301764 1.888764 20.46115 0.583292 -2.093602 -21.15843 5.128145 -5.605383 -33.11794 12.24098 90.54873 11.87949 -7.843443 -0 0 28.94209 -25.37707 15.76623 17.54654 1.27305 -20.64989 -5.878696 -95.47303 15.42303 35.7309 0 0 -7.605977 2.861764 15.4799 6.59542
764.5123 100.8779 3112.906 3.014879 -6.709682 28.32508 5.658053 -14.91521 4.962467 -0 20.71877 -0 -1.772771 -6.885622 -9.510676 -2.747399 14.45753 -8.480593 -0 46.65325 -0 -9.237051 -10.1807 13.22795 1.447899 -4.153427 7.339842 1.096136 15.38761 -6.298426 1.890311 20.4547 0.5825873 -2.093758 -21.15757 5.128684 -5.601073 -33.12455 12.23863 90.53787 11.87097 -7.829532 -0 0 28.96173 -25.38723 15.77965 17.56188 1.276397 -20.64571 -5.875531 -95.48343 15.42479 35.74325 0 0 -7.599438 2.847431 15.4762 6.615115
767.0902 102.1685 3118.868 3.447421 -7.671158 27.56881 5.975498 -9.928286 5.171966 -0 21.36366 -0 -2.366394 -8.505506 -8.80015 -2.609453 8.890697 -8.094131 -0 54.12637 -0 -8.790009 -8.281956 14.64159 1.448116 -4.159406 7.340703 1.093685 15.38776 -6.294631 1.892122 20.44802 0.5818744 -2.093966 -21.15696 5.129448 -5.596964 -33.13126 12.23581 90.52647 11.86134 -7.814456 -0 0 28.98257 -25.39815 15.79312 17.57841 1.280095 -20.64067 -5.871871 -95.49447 15.42768 35.75554 0 0 -7.592919 2.831496 15.47165 6.636974
